# xmcd
# 
# Track frame offsets:
#     150
#     13907
#     29060
#     36415
#     47700
#     54192
#     66260
#     75735
#     81240
#     92487
#     105302
#     116690
# 
# Disc length: 1717
# 
# Revision: 7
# Processed by: cddbd v1.5.2PL0 Copyright (c) Steve Scherf et al.
# Submitted via: fre:ac v1.0.27
# 
DISCID=9806b30c
DTITLE=Georges Brassens 2 - Georges Brassens II
DYEAR=1996
DGENRE=Chanson Française
TTITLE0=Les amoureux des bancs publics
TTITLE1=Brave Margot
TTITLE2=Pauvre Martin
TTITLE3=La première fille
TTITLE4=La cane de Jeanne
TTITLE5=Je suis un voyou
TTITLE6=J'ai rendez-vous avec vous
TTITLE7=Le vent
TTITLE8=Il n'y a pas d'amour heureux
TTITLE9=La mauvaise herbe
TTITLE10=Le mauvais sujet repenti
TTITLE11=P... de toi
EXTD=YEAR: 1996
EXTT0=
EXTT1=
EXTT2=
EXTT3=
EXTT4=
EXTT5=
EXTT6=
EXTT7=
EXTT8=
EXTT9=
EXTT10=
EXTT11=
PLAYORDER=
